# Tiled2Unity generated file. Do not modify by hand.
# Wavefront file for 'Plantel-Colomos_mesh_0014.obj'

# Vertices (Count = 508)
v -52.5 -1.166667 0
v -53.66667 -1.166667 0
v -53.66667 0 0
v -52.5 0 0
v -169.1667 -1.166667 0
v -170.3333 -1.166667 0
v -170.3333 0 0
v -169.1667 0 0
v -182 -1.166667 0
v -183.1667 -1.166667 0
v -183.1667 0 0
v -182 0 0
v -194.8333 -1.166667 0
v -196 -1.166667 0
v -196 0 0
v -194.8333 0 0
v -229.8333 -1.166667 0
v -231 -1.166667 0
v -231 0 0
v -229.8333 0 0
v -51.33333 -2.333333 0
v -52.5 -2.333333 0
v -52.5 -1.166667 0
v -51.33333 -1.166667 0
v -52.5 -2.333333 0
v -53.66667 -2.333333 0
v -53.66667 -1.166667 0
v -52.5 -1.166667 0
v -53.66667 -2.333333 0
v -54.83333 -2.333333 0
v -54.83333 -1.166667 0
v -53.66667 -1.166667 0
v -168 -2.333333 0
v -169.1667 -2.333333 0
v -169.1667 -1.166667 0
v -168 -1.166667 0
v -169.1667 -2.333333 0
v -170.3333 -2.333333 0
v -170.3333 -1.166667 0
v -169.1667 -1.166667 0
v -170.3333 -2.333333 0
v -171.5 -2.333333 0
v -171.5 -1.166667 0
v -170.3333 -1.166667 0
v -180.8333 -2.333333 0
v -182 -2.333333 0
v -182 -1.166667 0
v -180.8333 -1.166667 0
v -182 -2.333333 0
v -183.1667 -2.333333 0
v -183.1667 -1.166667 0
v -182 -1.166667 0
v -183.1667 -2.333333 0
v -184.3333 -2.333333 0
v -184.3333 -1.166667 0
v -183.1667 -1.166667 0
v -193.6667 -2.333333 0
v -194.8333 -2.333333 0
v -194.8333 -1.166667 0
v -193.6667 -1.166667 0
v -194.8333 -2.333333 0
v -196 -2.333333 0
v -196 -1.166667 0
v -194.8333 -1.166667 0
v -196 -2.333333 0
v -197.1667 -2.333333 0
v -197.1667 -1.166667 0
v -196 -1.166667 0
v -228.6667 -2.333333 0
v -229.8333 -2.333333 0
v -229.8333 -1.166667 0
v -228.6667 -1.166667 0
v -229.8333 -2.333333 0
v -231 -2.333333 0
v -231 -1.166667 0
v -229.8333 -1.166667 0
v -231 -2.333333 0
v -232.1667 -2.333333 0
v -232.1667 -1.166667 0
v -231 -1.166667 0
v -51.33333 -3.5 0
v -52.5 -3.5 0
v -52.5 -2.333333 0
v -51.33333 -2.333333 0
v -52.5 -3.5 0
v -53.66667 -3.5 0
v -53.66667 -2.333333 0
v -52.5 -2.333333 0
v -53.66667 -3.5 0
v -54.83333 -3.5 0
v -54.83333 -2.333333 0
v -53.66667 -2.333333 0
v -120.1667 -3.5 0
v -121.3333 -3.5 0
v -121.3333 -2.333333 0
v -120.1667 -2.333333 0
v -121.3333 -3.5 0
v -122.5 -3.5 0
v -122.5 -2.333333 0
v -121.3333 -2.333333 0
v -168 -3.5 0
v -169.1667 -3.5 0
v -169.1667 -2.333333 0
v -168 -2.333333 0
v -169.1667 -3.5 0
v -170.3333 -3.5 0
v -170.3333 -2.333333 0
v -169.1667 -2.333333 0
v -170.3333 -3.5 0
v -171.5 -3.5 0
v -171.5 -2.333333 0
v -170.3333 -2.333333 0
v -180.8333 -3.5 0
v -182 -3.5 0
v -182 -2.333333 0
v -180.8333 -2.333333 0
v -182 -3.5 0
v -183.1667 -3.5 0
v -183.1667 -2.333333 0
v -182 -2.333333 0
v -183.1667 -3.5 0
v -184.3333 -3.5 0
v -184.3333 -2.333333 0
v -183.1667 -2.333333 0
v -193.6667 -3.5 0
v -194.8333 -3.5 0
v -194.8333 -2.333333 0
v -193.6667 -2.333333 0
v -194.8333 -3.5 0
v -196 -3.5 0
v -196 -2.333333 0
v -194.8333 -2.333333 0
v -196 -3.5 0
v -197.1667 -3.5 0
v -197.1667 -2.333333 0
v -196 -2.333333 0
v -228.6667 -3.5 0
v -229.8333 -3.5 0
v -229.8333 -2.333333 0
v -228.6667 -2.333333 0
v -229.8333 -3.5 0
v -231 -3.5 0
v -231 -2.333333 0
v -229.8333 -2.333333 0
v -231 -3.5 0
v -232.1667 -3.5 0
v -232.1667 -2.333333 0
v -231 -2.333333 0
v -12.83333 -4.666667 0
v -14 -4.666667 0
v -14 -3.5 0
v -12.83333 -3.5 0
v -17.5 -4.666667 0
v -18.66667 -4.666667 0
v -18.66667 -3.5 0
v -17.5 -3.5 0
v -52.5 -4.666667 0
v -53.66667 -4.666667 0
v -53.66667 -3.5 0
v -52.5 -3.5 0
v -54.83333 -4.666667 0
v -56 -4.666667 0
v -56 -3.5 0
v -54.83333 -3.5 0
v -169.1667 -4.666667 0
v -170.3333 -4.666667 0
v -170.3333 -3.5 0
v -169.1667 -3.5 0
v -182 -4.666667 0
v -183.1667 -4.666667 0
v -183.1667 -3.5 0
v -182 -3.5 0
v -194.8333 -4.666667 0
v -196 -4.666667 0
v -196 -3.5 0
v -194.8333 -3.5 0
v -205.3333 -4.666667 0
v -206.5 -4.666667 0
v -206.5 -3.5 0
v -205.3333 -3.5 0
v -222.8333 -4.666667 0
v -224 -4.666667 0
v -224 -3.5 0
v -222.8333 -3.5 0
v -229.8333 -4.666667 0
v -231 -4.666667 0
v -231 -3.5 0
v -229.8333 -3.5 0
v -26.83333 -5.833333 0
v -28 -5.833333 0
v -28 -4.666667 0
v -26.83333 -4.666667 0
v -66.5 -5.833333 0
v -67.66666 -5.833333 0
v -67.66666 -4.666667 0
v -66.5 -4.666667 0
v -103.8333 -5.833333 0
v -105 -5.833333 0
v -105 -4.666667 0
v -103.8333 -4.666667 0
v -115.5 -5.833333 0
v -116.6667 -5.833333 0
v -116.6667 -4.666667 0
v -115.5 -4.666667 0
v -116.6667 -5.833333 0
v -117.8333 -5.833333 0
v -117.8333 -4.666667 0
v -116.6667 -4.666667 0
v -124.8333 -5.833333 0
v -126 -5.833333 0
v -126 -4.666667 0
v -124.8333 -4.666667 0
v -126 -5.833333 0
v -127.1667 -5.833333 0
v -127.1667 -4.666667 0
v -126 -4.666667 0
v -140 -5.833333 0
v -141.1667 -5.833333 0
v -141.1667 -4.666667 0
v -140 -4.666667 0
v -213.5 -5.833333 0
v -214.6667 -5.833333 0
v -214.6667 -4.666667 0
v -213.5 -4.666667 0
v -214.6667 -5.833333 0
v -215.8333 -5.833333 0
v -215.8333 -4.666667 0
v -214.6667 -4.666667 0
v -25.66667 -7 0
v -26.83333 -7 0
v -26.83333 -5.833333 0
v -25.66667 -5.833333 0
v -26.83333 -7 0
v -28 -7 0
v -28 -5.833333 0
v -26.83333 -5.833333 0
v -28 -7 0
v -29.16667 -7 0
v -29.16667 -5.833333 0
v -28 -5.833333 0
v -39.66667 -7 0
v -40.83333 -7 0
v -40.83333 -5.833333 0
v -39.66667 -5.833333 0
v -40.83333 -7 0
v -42 -7 0
v -42 -5.833333 0
v -40.83333 -5.833333 0
v -42 -7 0
v -43.16667 -7 0
v -43.16667 -5.833333 0
v -42 -5.833333 0
v -43.16667 -7 0
v -44.33333 -7 0
v -44.33333 -5.833333 0
v -43.16667 -5.833333 0
v -44.33333 -7 0
v -45.5 -7 0
v -45.5 -5.833333 0
v -44.33333 -5.833333 0
v -45.5 -7 0
v -46.66667 -7 0
v -46.66667 -5.833333 0
v -45.5 -5.833333 0
v -46.66667 -7 0
v -47.83333 -7 0
v -47.83333 -5.833333 0
v -46.66667 -5.833333 0
v -65.33334 -7 0
v -66.5 -7 0
v -66.5 -5.833333 0
v -65.33334 -5.833333 0
v -66.5 -7 0
v -67.66666 -7 0
v -67.66666 -5.833333 0
v -66.5 -5.833333 0
v -67.66666 -7 0
v -68.83334 -7 0
v -68.83334 -5.833333 0
v -67.66666 -5.833333 0
v -102.6667 -7 0
v -103.8333 -7 0
v -103.8333 -5.833333 0
v -102.6667 -5.833333 0
v -103.8333 -7 0
v -105 -7 0
v -105 -5.833333 0
v -103.8333 -5.833333 0
v -105 -7 0
v -106.1667 -7 0
v -106.1667 -5.833333 0
v -105 -5.833333 0
v -110.8333 -7 0
v -112 -7 0
v -112 -5.833333 0
v -110.8333 -5.833333 0
v -112 -7 0
v -113.1667 -7 0
v -113.1667 -5.833333 0
v -112 -5.833333 0
v -129.5 -7 0
v -130.6667 -7 0
v -130.6667 -5.833333 0
v -129.5 -5.833333 0
v -130.6667 -7 0
v -131.8333 -7 0
v -131.8333 -5.833333 0
v -130.6667 -5.833333 0
v -138.8333 -7 0
v -140 -7 0
v -140 -5.833333 0
v -138.8333 -5.833333 0
v -140 -7 0
v -141.1667 -7 0
v -141.1667 -5.833333 0
v -140 -5.833333 0
v -141.1667 -7 0
v -142.3333 -7 0
v -142.3333 -5.833333 0
v -141.1667 -5.833333 0
v -157.5 -7 0
v -158.6667 -7 0
v -158.6667 -5.833333 0
v -157.5 -5.833333 0
v -158.6667 -7 0
v -159.8333 -7 0
v -159.8333 -5.833333 0
v -158.6667 -5.833333 0
v -159.8333 -7 0
v -161 -7 0
v -161 -5.833333 0
v -159.8333 -5.833333 0
v -161 -7 0
v -162.1667 -7 0
v -162.1667 -5.833333 0
v -161 -5.833333 0
v -213.5 -7 0
v -214.6667 -7 0
v -214.6667 -5.833333 0
v -213.5 -5.833333 0
v -214.6667 -7 0
v -215.8333 -7 0
v -215.8333 -5.833333 0
v -214.6667 -5.833333 0
v -25.66667 -8.166667 0
v -26.83333 -8.166667 0
v -26.83333 -7 0
v -25.66667 -7 0
v -26.83333 -8.166667 0
v -28 -8.166667 0
v -28 -7 0
v -26.83333 -7 0
v -28 -8.166667 0
v -29.16667 -8.166667 0
v -29.16667 -7 0
v -28 -7 0
v -32.66667 -8.166667 0
v -33.83333 -8.166667 0
v -33.83333 -7 0
v -32.66667 -7 0
v -33.83333 -8.166667 0
v -35 -8.166667 0
v -35 -7 0
v -33.83333 -7 0
v -35 -8.166667 0
v -36.16667 -8.166667 0
v -36.16667 -7 0
v -35 -7 0
v -36.16667 -8.166667 0
v -37.33333 -8.166667 0
v -37.33333 -7 0
v -36.16667 -7 0
v -65.33334 -8.166667 0
v -66.5 -8.166667 0
v -66.5 -7 0
v -65.33334 -7 0
v -66.5 -8.166667 0
v -67.66666 -8.166667 0
v -67.66666 -7 0
v -66.5 -7 0
v -67.66666 -8.166667 0
v -68.83334 -8.166667 0
v -68.83334 -7 0
v -67.66666 -7 0
v -78.16666 -8.166667 0
v -79.33334 -8.166667 0
v -79.33334 -7 0
v -78.16666 -7 0
v -79.33334 -8.166667 0
v -80.5 -8.166667 0
v -80.5 -7 0
v -79.33334 -7 0
v -85.16666 -8.166667 0
v -86.33334 -8.166667 0
v -86.33334 -7 0
v -85.16666 -7 0
v -86.33334 -8.166667 0
v -87.5 -8.166667 0
v -87.5 -7 0
v -86.33334 -7 0
v -92.16666 -8.166667 0
v -93.33334 -8.166667 0
v -93.33334 -7 0
v -92.16666 -7 0
v -93.33334 -8.166667 0
v -94.5 -8.166667 0
v -94.5 -7 0
v -93.33334 -7 0
v -102.6667 -8.166667 0
v -103.8333 -8.166667 0
v -103.8333 -7 0
v -102.6667 -7 0
v -103.8333 -8.166667 0
v -105 -8.166667 0
v -105 -7 0
v -103.8333 -7 0
v -105 -8.166667 0
v -106.1667 -8.166667 0
v -106.1667 -7 0
v -105 -7 0
v -138.8333 -8.166667 0
v -140 -8.166667 0
v -140 -7 0
v -138.8333 -7 0
v -140 -8.166667 0
v -141.1667 -8.166667 0
v -141.1667 -7 0
v -140 -7 0
v -141.1667 -8.166667 0
v -142.3333 -8.166667 0
v -142.3333 -7 0
v -141.1667 -7 0
v -150.5 -8.166667 0
v -151.6667 -8.166667 0
v -151.6667 -7 0
v -150.5 -7 0
v -151.6667 -8.166667 0
v -152.8333 -8.166667 0
v -152.8333 -7 0
v -151.6667 -7 0
v -152.8333 -8.166667 0
v -154 -8.166667 0
v -154 -7 0
v -152.8333 -7 0
v -154 -8.166667 0
v -155.1667 -8.166667 0
v -155.1667 -7 0
v -154 -7 0
v -213.5 -8.166667 0
v -214.6667 -8.166667 0
v -214.6667 -7 0
v -213.5 -7 0
v -214.6667 -8.166667 0
v -215.8333 -8.166667 0
v -215.8333 -7 0
v -214.6667 -7 0
v -2.333333 -9.333333 0
v -3.5 -9.333333 0
v -3.5 -8.166667 0
v -2.333333 -8.166667 0
v -26.83333 -9.333333 0
v -28 -9.333333 0
v -28 -8.166667 0
v -26.83333 -8.166667 0
v -66.5 -9.333333 0
v -67.66666 -9.333333 0
v -67.66666 -8.166667 0
v -66.5 -8.166667 0
v -78.16666 -9.333333 0
v -79.33334 -9.333333 0
v -79.33334 -8.166667 0
v -78.16666 -8.166667 0
v -79.33334 -9.333333 0
v -80.5 -9.333333 0
v -80.5 -8.166667 0
v -79.33334 -8.166667 0
v -85.16666 -9.333333 0
v -86.33334 -9.333333 0
v -86.33334 -8.166667 0
v -85.16666 -8.166667 0
v -86.33334 -9.333333 0
v -87.5 -9.333333 0
v -87.5 -8.166667 0
v -86.33334 -8.166667 0
v -92.16666 -9.333333 0
v -93.33334 -9.333333 0
v -93.33334 -8.166667 0
v -92.16666 -8.166667 0
v -93.33334 -9.333333 0
v -94.5 -9.333333 0
v -94.5 -8.166667 0
v -93.33334 -8.166667 0
v -103.8333 -9.333333 0
v -105 -9.333333 0
v -105 -8.166667 0
v -103.8333 -8.166667 0
v -140 -9.333333 0
v -141.1667 -9.333333 0
v -141.1667 -8.166667 0
v -140 -8.166667 0
v -213.5 -9.333333 0
v -214.6667 -9.333333 0
v -214.6667 -8.166667 0
v -213.5 -8.166667 0
v -214.6667 -9.333333 0
v -215.8333 -9.333333 0
v -215.8333 -8.166667 0
v -214.6667 -8.166667 0

# Texture cooridinates (Count = 80)
vt 0.002890173 0.2687861
vt 0.033237 0.2687861
vt 0.033237 0.2991329
vt 0.002890173 0.2991329
vt 0.2687861 0.2687861
vt 0.2991329 0.2687861
vt 0.2991329 0.2991329
vt 0.2687861 0.2991329
vt 0.3020231 0.2687861
vt 0.33237 0.2687861
vt 0.33237 0.2991329
vt 0.3020231 0.2991329
vt 0.3352601 0.2687861
vt 0.3656069 0.2687861
vt 0.3656069 0.2991329
vt 0.3352601 0.2991329
vt 0.2687861 0.2355492
vt 0.2991329 0.2355492
vt 0.2991329 0.265896
vt 0.2687861 0.265896
vt 0.3020231 0.2355492
vt 0.33237 0.2355492
vt 0.33237 0.265896
vt 0.3020231 0.265896
vt 0.3352601 0.2355492
vt 0.3656069 0.2355492
vt 0.3656069 0.265896
vt 0.3352601 0.265896
vt 0.3352601 0.867052
vt 0.3656069 0.867052
vt 0.3656069 0.8973988
vt 0.3352601 0.8973988
vt 0.4017341 0.6011561
vt 0.4320809 0.6011561
vt 0.4320809 0.6315029
vt 0.4017341 0.6315029
vt 0.03612717 0.2687861
vt 0.06647399 0.2687861
vt 0.06647399 0.2991329
vt 0.03612717 0.2991329
vt 0.4017341 0.6343931
vt 0.4320809 0.6343931
vt 0.4320809 0.6647398
vt 0.4017341 0.6647398
vt 0.933526 0.6676301
vt 0.9638728 0.6676301
vt 0.9638728 0.6979769
vt 0.933526 0.6979769
vt 0.966763 0.734104
vt 0.9971098 0.734104
vt 0.9971098 0.7644508
vt 0.966763 0.7644508
vt 0.933526 0.6343931
vt 0.9638728 0.6343931
vt 0.9638728 0.6647398
vt 0.933526 0.6647398
vt 0.966763 0.7008671
vt 0.9971098 0.7008671
vt 0.9971098 0.7312139
vt 0.966763 0.7312139
vt 0.933526 0.734104
vt 0.9638728 0.734104
vt 0.9638728 0.7644508
vt 0.933526 0.7644508
vt 0.966763 0.6676301
vt 0.9971098 0.6676301
vt 0.9971098 0.6979769
vt 0.966763 0.6979769
vt 0.966763 0.6343931
vt 0.9971098 0.6343931
vt 0.9971098 0.6647398
vt 0.966763 0.6647398
vt 0.933526 0.7008671
vt 0.9638728 0.7008671
vt 0.9638728 0.7312139
vt 0.933526 0.7312139
vt 0.5014451 0.7008671
vt 0.5317919 0.7008671
vt 0.5317919 0.7312139
vt 0.5014451 0.7312139

# Normal
vn 0 0 -1

# Mesh description
g Plantel-Colomos_mesh_0014

# Faces
f 1/1/1 2/2/1 3/3/1 4/4/1
f 5/1/1 6/2/1 7/3/1 8/4/1
f 9/1/1 10/2/1 11/3/1 12/4/1
f 13/1/1 14/2/1 15/3/1 16/4/1
f 17/1/1 18/2/1 19/3/1 20/4/1
f 21/5/1 22/6/1 23/7/1 24/8/1
f 25/9/1 26/10/1 27/11/1 28/12/1
f 29/13/1 30/14/1 31/15/1 32/16/1
f 33/5/1 34/6/1 35/7/1 36/8/1
f 37/9/1 38/10/1 39/11/1 40/12/1
f 41/13/1 42/14/1 43/15/1 44/16/1
f 45/5/1 46/6/1 47/7/1 48/8/1
f 49/9/1 50/10/1 51/11/1 52/12/1
f 53/13/1 54/14/1 55/15/1 56/16/1
f 57/5/1 58/6/1 59/7/1 60/8/1
f 61/9/1 62/10/1 63/11/1 64/12/1
f 65/13/1 66/14/1 67/15/1 68/16/1
f 69/5/1 70/6/1 71/7/1 72/8/1
f 73/9/1 74/10/1 75/11/1 76/12/1
f 77/13/1 78/14/1 79/15/1 80/16/1
f 81/17/1 82/18/1 83/19/1 84/20/1
f 85/21/1 86/22/1 87/23/1 88/24/1
f 89/25/1 90/26/1 91/27/1 92/28/1
f 93/29/1 94/30/1 95/31/1 96/32/1
f 97/29/1 98/30/1 99/31/1 100/32/1
f 101/17/1 102/18/1 103/19/1 104/20/1
f 105/21/1 106/22/1 107/23/1 108/24/1
f 109/25/1 110/26/1 111/27/1 112/28/1
f 113/17/1 114/18/1 115/19/1 116/20/1
f 117/21/1 118/22/1 119/23/1 120/24/1
f 121/25/1 122/26/1 123/27/1 124/28/1
f 125/17/1 126/18/1 127/19/1 128/20/1
f 129/21/1 130/22/1 131/23/1 132/24/1
f 133/25/1 134/26/1 135/27/1 136/28/1
f 137/17/1 138/18/1 139/19/1 140/20/1
f 141/21/1 142/22/1 143/23/1 144/24/1
f 145/25/1 146/26/1 147/27/1 148/28/1
f 149/33/1 150/34/1 151/35/1 152/36/1
f 153/33/1 154/34/1 155/35/1 156/36/1
f 157/37/1 158/38/1 159/39/1 160/40/1
f 161/41/1 162/42/1 163/43/1 164/44/1
f 165/37/1 166/38/1 167/39/1 168/40/1
f 169/37/1 170/38/1 171/39/1 172/40/1
f 173/37/1 174/38/1 175/39/1 176/40/1
f 177/41/1 178/42/1 179/43/1 180/44/1
f 181/41/1 182/42/1 183/43/1 184/44/1
f 185/37/1 186/38/1 187/39/1 188/40/1
f 189/1/1 190/2/1 191/3/1 192/4/1
f 193/1/1 194/2/1 195/3/1 196/4/1
f 197/1/1 198/2/1 199/3/1 200/4/1
f 201/29/1 202/30/1 203/31/1 204/32/1
f 205/29/1 206/30/1 207/31/1 208/32/1
f 209/29/1 210/30/1 211/31/1 212/32/1
f 213/29/1 214/30/1 215/31/1 216/32/1
f 217/1/1 218/2/1 219/3/1 220/4/1
f 221/45/1 222/46/1 223/47/1 224/48/1
f 225/49/1 226/50/1 227/51/1 228/52/1
f 229/5/1 230/6/1 231/7/1 232/8/1
f 233/9/1 234/10/1 235/11/1 236/12/1
f 237/13/1 238/14/1 239/15/1 240/16/1
f 241/29/1 242/30/1 243/31/1 244/32/1
f 245/29/1 246/30/1 247/31/1 248/32/1
f 249/29/1 250/30/1 251/31/1 252/32/1
f 253/29/1 254/30/1 255/31/1 256/32/1
f 257/29/1 258/30/1 259/31/1 260/32/1
f 261/29/1 262/30/1 263/31/1 264/32/1
f 265/29/1 266/30/1 267/31/1 268/32/1
f 269/5/1 270/6/1 271/7/1 272/8/1
f 273/9/1 274/10/1 275/11/1 276/12/1
f 277/13/1 278/14/1 279/15/1 280/16/1
f 281/5/1 282/6/1 283/7/1 284/8/1
f 285/9/1 286/10/1 287/11/1 288/12/1
f 289/13/1 290/14/1 291/15/1 292/16/1
f 293/29/1 294/30/1 295/31/1 296/32/1
f 297/29/1 298/30/1 299/31/1 300/32/1
f 301/29/1 302/30/1 303/31/1 304/32/1
f 305/29/1 306/30/1 307/31/1 308/32/1
f 309/5/1 310/6/1 311/7/1 312/8/1
f 313/9/1 314/10/1 315/11/1 316/12/1
f 317/13/1 318/14/1 319/15/1 320/16/1
f 321/29/1 322/30/1 323/31/1 324/32/1
f 325/29/1 326/30/1 327/31/1 328/32/1
f 329/29/1 330/30/1 331/31/1 332/32/1
f 333/29/1 334/30/1 335/31/1 336/32/1
f 337/53/1 338/54/1 339/55/1 340/56/1
f 341/57/1 342/58/1 343/59/1 344/60/1
f 345/17/1 346/18/1 347/19/1 348/20/1
f 349/21/1 350/22/1 351/23/1 352/24/1
f 353/25/1 354/26/1 355/27/1 356/28/1
f 357/29/1 358/30/1 359/31/1 360/32/1
f 361/29/1 362/30/1 363/31/1 364/32/1
f 365/29/1 366/30/1 367/31/1 368/32/1
f 369/29/1 370/30/1 371/31/1 372/32/1
f 373/17/1 374/18/1 375/19/1 376/20/1
f 377/21/1 378/22/1 379/23/1 380/24/1
f 381/25/1 382/26/1 383/27/1 384/28/1
f 385/61/1 386/62/1 387/63/1 388/64/1
f 389/65/1 390/66/1 391/67/1 392/68/1
f 393/61/1 394/62/1 395/63/1 396/64/1
f 397/65/1 398/66/1 399/67/1 400/68/1
f 401/61/1 402/62/1 403/63/1 404/64/1
f 405/65/1 406/66/1 407/67/1 408/68/1
f 409/17/1 410/18/1 411/19/1 412/20/1
f 413/21/1 414/22/1 415/23/1 416/24/1
f 417/25/1 418/26/1 419/27/1 420/28/1
f 421/17/1 422/18/1 423/19/1 424/20/1
f 425/21/1 426/22/1 427/23/1 428/24/1
f 429/25/1 430/26/1 431/27/1 432/28/1
f 433/29/1 434/30/1 435/31/1 436/32/1
f 437/29/1 438/30/1 439/31/1 440/32/1
f 441/29/1 442/30/1 443/31/1 444/32/1
f 445/29/1 446/30/1 447/31/1 448/32/1
f 449/69/1 450/70/1 451/71/1 452/72/1
f 453/73/1 454/74/1 455/75/1 456/76/1
f 457/77/1 458/78/1 459/79/1 460/80/1
f 461/37/1 462/38/1 463/39/1 464/40/1
f 465/37/1 466/38/1 467/39/1 468/40/1
f 469/73/1 470/74/1 471/75/1 472/76/1
f 473/69/1 474/70/1 475/71/1 476/72/1
f 477/73/1 478/74/1 479/75/1 480/76/1
f 481/69/1 482/70/1 483/71/1 484/72/1
f 485/73/1 486/74/1 487/75/1 488/76/1
f 489/69/1 490/70/1 491/71/1 492/72/1
f 493/37/1 494/38/1 495/39/1 496/40/1
f 497/37/1 498/38/1 499/39/1 500/40/1
f 501/53/1 502/54/1 503/55/1 504/56/1
f 505/57/1 506/58/1 507/59/1 508/60/1

