# Tiled2Unity generated file. Do not modify by hand.
# Wavefront file for 'Plantel-Colomos_mesh_0002.obj'

# Vertices (Count = 16)
v -1.166667 -10.5 0
v -2.333333 -10.5 0
v -2.333333 -9.333333 0
v -1.166667 -9.333333 0
v -16.33333 -10.5 0
v -17.5 -10.5 0
v -17.5 -9.333333 0
v -16.33333 -9.333333 0
v -15.16667 -11.66667 0
v -16.33333 -11.66667 0
v -16.33333 -10.5 0
v -15.16667 -10.5 0
v -16.33333 -11.66667 0
v -17.5 -11.66667 0
v -17.5 -10.5 0
v -16.33333 -10.5 0

# Texture cooridinates (Count = 4)
vt 0.4017341 0.3684971
vt 0.4320809 0.3684971
vt 0.4320809 0.3988439
vt 0.4017341 0.3988439

# Normal
vn 0 0 -1

# Mesh description
g Plantel-Colomos_mesh_0002

# Faces
f 1/1/1 2/2/1 3/3/1 4/4/1
f 5/1/1 6/2/1 7/3/1 8/4/1
f 9/1/1 10/2/1 11/3/1 12/4/1
f 13/1/1 14/2/1 15/3/1 16/4/1

